<svg width="150" height="92" viewBox="0 0 150 92" fill="none" xmlns="http://www.w3.org/2000/svg">
<g clip-path="url(#clip0_2_30)">
<path d="M38.4716 10.7708C35.7104 11.6584 33.7146 15.343 34.2856 19.6176L34.2862 19.6206C34.3103 19.8038 34.3387 19.9863 34.3716 20.1681C34.8278 22.6512 36.0897 24.6886 37.6254 25.9738L39.5027 27.5449L37.2183 28.4247C35.6434 29.0317 34.607 30.1127 33.8412 31.7086C33.5819 32.2489 33.3628 32.8487 33.1797 33.4962C24.268 34.1232 17.734 33.03 17.263 30.4665C16.7789 27.8316 22.8433 24.4239 31.7974 21.8396C31.6939 21.4602 31.6065 21.0766 31.5355 20.6898L31.5354 20.6895C31.512 20.562 31.4924 20.4348 31.4726 20.3072C17.0274 24.0232 6.89667 29.3953 7.63687 33.4261C8.34278 37.2701 18.7259 38.7402 32.5429 37.4269C32.5348 37.5448 32.524 37.6602 32.5173 37.7793C32.4301 39.3202 32.4664 40.9607 32.583 42.6352C32.5814 42.6355 32.5799 42.6357 32.5785 42.6363C32.6169 43.2024 32.6647 43.772 32.7203 44.3432L32.7277 44.341C32.9679 46.772 33.3476 49.2284 33.7494 51.5188L39.1966 50.518L40.3094 54.769C29.8142 55.9137 21.7491 54.8838 21.2238 52.0248C20.8546 50.0151 24.298 47.5553 29.9241 45.3545C29.8565 44.7306 29.798 44.1046 29.7483 43.4788C18.4118 47.0288 10.9591 51.5066 11.5977 54.9846C12.3828 59.2597 25.1341 60.5995 41.2704 58.4389L44.3959 70.379C46.0631 70.4881 48.2815 70.318 50.4304 69.9085C52.5206 69.5101 54.5158 68.8897 55.8504 68.2852L54.4229 56.0213C70.2609 52.3052 81.6906 46.5242 80.9056 42.2515C80.264 38.7591 71.6368 37.225 59.7021 37.9579C59.8603 38.5595 60.011 39.1635 60.1532 39.7685C66.2611 39.812 70.3948 40.8943 70.7675 42.9227C71.2927 45.7818 64.181 49.6 53.985 52.2567L53.4769 47.8943L58.664 46.9414C58.2408 44.6482 57.7729 42.1995 57.1942 39.8233C57.1957 39.823 57.1973 39.8231 57.1992 39.823C57.0649 39.2727 56.9233 38.7242 56.7742 38.1776L56.7711 38.1779C56.3174 36.5109 55.799 34.9077 55.1899 33.4534C55.165 33.3945 55.1396 33.3367 55.1146 33.2781C68.4814 29.5946 77.6508 24.5343 76.9451 20.693C76.1983 16.6279 64.6316 15.216 49.6231 16.945C49.6519 17.0802 49.681 17.2149 49.7061 17.3515C49.7758 17.7309 49.8289 18.1086 49.8665 18.484C59.3152 17.6637 66.3164 18.6952 66.8068 21.3646C67.2754 23.9148 61.6665 27.2279 53.2139 29.7994C52.7894 29.2055 52.3402 28.6814 51.8669 28.242C50.5748 27.0412 49.1681 26.4144 47.2831 26.467L44.7994 26.5359L45.9715 24.3454C46.7806 22.8335 47.2017 20.8696 46.9976 18.781L46.9979 18.7809C46.9683 18.4804 46.9263 18.1775 46.8703 17.8728C46.8488 17.7559 46.8242 17.6409 46.7992 17.5266C46.7835 17.4542 46.7674 17.3822 46.7505 17.3106L46.7502 17.3106C45.6963 12.8379 42.2079 10.0972 39.0864 10.6707C38.7027 10.7412 38.4821 10.7681 38.4726 10.7709L38.4721 10.771L38.4716 10.7708ZM39.4434 62.8495C24.8918 66.567 14.6729 71.9671 15.417 76.0175C16.3073 80.8634 32.545 81.9407 51.6852 78.4243C70.8254 74.9079 85.6198 68.1295 84.7295 63.2836C83.9876 59.2457 72.5854 57.827 57.7304 59.5001L57.9079 61.0253C67.2372 60.2612 74.1343 61.3317 74.6205 63.9781C75.2565 67.4396 64.6888 72.2815 51.0173 74.7932C37.3458 77.3049 25.7472 76.5351 25.1113 73.074C24.6225 70.4132 30.758 66.9377 39.8315 64.3309L39.4433 62.8499L39.4434 62.8495Z" fill="#E71C5C"/>
</g>
<g filter="url(#filter0_d_2_30)">
<path d="M86.6372 47.6651L88.1244 43.0004L91.097 43.9481L96.5792 26.7529L91.9145 25.2657L90.2524 30.4791L85.2676 28.8899L88.3878 19.1032L115.37 27.7056L112.249 37.4922L107.265 35.903L108.927 30.6895L104.308 29.2169L98.8257 46.4122L101.798 47.3599L100.311 52.0246L86.6372 47.6651ZM110.262 55.1972L111.75 50.5326L114.356 51.3637L119.795 34.3056L117.188 33.4745L118.69 28.7641L133.05 33.3424C136.708 34.5088 139.299 36.0232 140.821 37.8856C142.383 39.7272 142.713 42.0657 141.809 44.901C140.895 47.7669 139.314 49.5637 137.067 50.2915C134.83 50.9888 131.988 50.7883 128.543 49.6899L125.662 48.7713L127.149 44.1067L128.978 44.6899C130.167 45.069 131.174 45.0709 131.999 44.6958C132.855 44.3303 133.462 43.5836 133.822 42.4555C134.172 41.358 134.129 40.4376 133.695 39.6944C133.27 38.9207 132.478 38.3492 131.319 37.9798L127.569 36.7843L122.131 53.8423L125.058 54.7754L123.57 59.4401L110.262 55.1972Z" fill="#E71C5C"/>
</g>
<defs>
<filter id="filter0_d_2_30" x="75.9603" y="19.1033" width="72.3851" height="52.2736" filterUnits="userSpaceOnUse" color-interpolation-filters="sRGB">
<feFlood flood-opacity="0" result="BackgroundImageFix"/>
<feColorMatrix in="SourceAlpha" type="matrix" values="0 0 0 0 0 0 0 0 0 0 0 0 0 0 0 0 0 0 127 0" result="hardAlpha"/>
<feOffset dy="4"/>
<feGaussianBlur stdDeviation="2"/>
<feComposite in2="hardAlpha" operator="out"/>
<feColorMatrix type="matrix" values="0 0 0 0 0 0 0 0 0 0 0 0 0 0 0 0 0 0 0.25 0"/>
<feBlend mode="normal" in2="BackgroundImageFix" result="effect1_dropShadow_2_30"/>
<feBlend mode="normal" in="SourceGraphic" in2="effect1_dropShadow_2_30" result="shape"/>
</filter>
<clipPath id="clip0_2_30">
<rect width="79" height="79" fill="white" transform="translate(0 14.2749) rotate(-10.4102)"/>
</clipPath>
</defs>
</svg>
